<svg id="Warstwa_1" data-name="Warstwa 1" xmlns="http://www.w3.org/2000/svg" viewBox="0 0 131.78 111.89"><defs><style>.cls-1{fill:#231f20;}</style></defs><title>Logo</title><path class="cls-1" d="M62.19,14.35a6.34,6.34,0,0,1,1.26,4,5.84,5.84,0,0,1-2.46,5c-1.65,1.17-4,1.76-7.19,1.76h-12V0h11.3a11.16,11.16,0,0,1,6.68,1.73,5.61,5.61,0,0,1,2.36,4.79,6.24,6.24,0,0,1-.92,3.42,5.92,5.92,0,0,1-2.46,2.19A6.46,6.46,0,0,1,62.19,14.35ZM45.38,2.92V11h7.38A7.46,7.46,0,0,0,57,10a3.41,3.41,0,0,0,1.49-3,3.44,3.44,0,0,0-1.49-3,7.55,7.55,0,0,0-4.27-1ZM58.27,21.28a3.53,3.53,0,0,0,1.55-3.17c0-2.81-2.06-4.21-6.16-4.21H45.38v8.38h8.28A8.55,8.55,0,0,0,58.27,21.28Z"/><path class="cls-1" d="M94.52,22.07V25.2H76.23V0H94V3.13H79.83v7.74H92.47v3.06H79.83v8.14Z"/><path class="cls-1" d="M107.55,0h10.62a15.39,15.39,0,0,1,7.09,1.58A11.63,11.63,0,0,1,130.07,6a12.57,12.57,0,0,1,1.71,6.57,12.57,12.57,0,0,1-1.71,6.57,11.63,11.63,0,0,1-4.81,4.45,15.39,15.39,0,0,1-7.09,1.58H107.55ZM118,22.07a11.68,11.68,0,0,0,5.38-1.19,8.61,8.61,0,0,0,3.58-3.33,9.59,9.59,0,0,0,1.26-5,9.59,9.59,0,0,0-1.26-4.95,8.61,8.61,0,0,0-3.58-3.33A11.68,11.68,0,0,0,118,3.13h-6.81V22.07Z"/><path class="cls-1" d="M63.45,43.2V68.4h-3L45.38,49.61V68.4h-3.6V43.2h2.95L59.85,62V43.2Z"/><path class="cls-1" d="M92.46,62.1H79.07l-2.78,6.3h-3.7L84,43.2h3.56L99,68.4H95.23ZM91.2,59.22,85.76,46.87,80.33,59.22Z"/><path class="cls-1" d="M126,68.4l-5.43-7.74c-.67.05-1.2.07-1.59.07h-6.23V68.4h-3.59V43.2H119q4.91,0,7.71,2.34a7.94,7.94,0,0,1,2.8,6.44,8.49,8.49,0,0,1-1.43,5,8.15,8.15,0,0,1-4.11,3l6,8.46Zm-1.9-12.2a5.18,5.18,0,0,0,1.8-4.22,5.11,5.11,0,0,0-1.8-4.19,8.17,8.17,0,0,0-5.23-1.46h-6.12V57.67h6.12A8.11,8.11,0,0,0,124.09,56.2Z"/><path class="cls-1" d="M46.63,111a11.18,11.18,0,0,1-4.15-2.29l1.33-2.81A10.93,10.93,0,0,0,47.5,108a13.54,13.54,0,0,0,4.62.81,8.39,8.39,0,0,0,4.68-1.06,3.26,3.26,0,0,0,1.55-2.83,2.81,2.81,0,0,0-.84-2.11,5.72,5.72,0,0,0-2.09-1.24c-.83-.29-2-.61-3.51-1a34.19,34.19,0,0,1-4.59-1.37,7.57,7.57,0,0,1-3-2.1,5.63,5.63,0,0,1-1.24-3.84,6.46,6.46,0,0,1,1.06-3.63,7.33,7.33,0,0,1,3.22-2.6,13.22,13.22,0,0,1,5.37-1,16.75,16.75,0,0,1,4.39.58,11.68,11.68,0,0,1,3.71,1.65l-1.19,2.88a13.27,13.27,0,0,0-3.39-1.53,12.88,12.88,0,0,0-3.52-.52,7.73,7.73,0,0,0-4.59,1.12,3.41,3.41,0,0,0-1.53,2.88,2.73,2.73,0,0,0,.86,2.1,6,6,0,0,0,2.14,1.26,33.87,33.87,0,0,0,3.48,1,33.79,33.79,0,0,1,4.57,1.37,7.71,7.71,0,0,1,3,2.08,5.5,5.5,0,0,1,1.24,3.78,6.44,6.44,0,0,1-1.08,3.62,7.19,7.19,0,0,1-3.28,2.59,13.45,13.45,0,0,1-5.4,1A17.53,17.53,0,0,1,46.63,111Z"/><path class="cls-1" d="M83.42,100.69l-4.6,4.68v6.52h-3.6V86.69h3.6v14.07L92.5,86.69h4.1L85.84,98l11.44,13.86H93.07Z"/><path class="cls-1" d="M125.23,105.59H111.84l-2.78,6.3h-3.71l11.42-25.2h3.56l11.45,25.2H128ZM124,102.71l-5.44-12.35-5.44,12.35Z"/><circle class="cls-1" cx="11.38" cy="55.8" r="11.38"/></svg>